<svg width="18" height="18" viewBox="0 0 18 18" fill="none" xmlns="http://www.w3.org/2000/svg">
<path d="M4.01317 0.688535C3.09511 -0.229512 1.60665 -0.229512 0.688596 0.688535C-0.229459 1.60658 -0.229459 3.09503 0.688597 4.01308L5.67554 8.99997L0.688542 13.9869C-0.229514 14.905 -0.229514 16.3934 0.688541 17.3115C1.6066 18.2295 3.09506 18.2295 4.01311 17.3115L9.00011 12.3245L13.9869 17.3112C14.9049 18.2293 16.3934 18.2293 17.3115 17.3112C18.2295 16.3932 18.2295 14.9047 17.3115 13.9867L12.3247 8.99997L17.3114 4.0133C18.2295 3.09525 18.2295 1.6068 17.3114 0.688754C16.3933 -0.229293 14.9049 -0.229292 13.9868 0.688755L9.00011 5.67543L4.01317 0.688535Z" fill="white"/>
</svg> 
