<svg width="20" height="20" viewBox="0 0 20 20"  xmlns="http://www.w3.org/2000/svg">
<path d="M16 16C16 17.2632 15.2632 18 14 18H6C4.73684 18 4 17.2632 4 16V5H16V16ZM18 16V3H2V16C2 18.2456 3.75439 20 6 20H14C16.2456 20 18 18.2456 18 16ZM1 5H3C3.54386 5 4 4.54386 4 4C4 3.45614 3.54386 3 3 3H1C0.45614 3 0 3.45614 0 4C0 4.54386 0.45614 5 1 5ZM19 3H17C16.4561 3 16 3.45614 16 4C16 4.54386 16.4561 5 17 5H19C19.5439 5 20 4.54386 20 4C20 3.45614 19.5439 3 19 3ZM13 0H7C6.45614 0 6 0.45614 6 1C6 1.54386 6.45614 2 7 2H13C13.5439 2 14 1.54386 14 1C14 0.45614 13.5439 0 13 0ZM9 15V8C9 7.45614 8.54386 7 8 7C7.45614 7 7 7.45614 7 8V15C7 15.5439 7.45614 16 8 16C8.54386 16 9 15.5439 9 15ZM13 15V8C13 7.45614 12.5439 7 12 7C11.4561 7 11 7.45614 11 8V15C11 15.5439 11.4561 16 12 16C12.5439 16 13 15.5439 13 15Z" />
</svg>
