<svg width="40" height="48" viewBox="0 0 40 48"  xmlns="http://www.w3.org/2000/svg">
<g clip-path="url(#clip0_885_1219)">
<path d="M12.334 7.10901C10.867 7.91064 9.67183 8.9263 8.69404 10.1023C8.36814 10.5299 8.42233 11.1712 8.857 11.4919C9.29166 11.8126 9.94344 11.7593 10.2694 11.3316C11.0842 10.3696 12.0622 9.51431 13.3116 8.81933C13.8005 8.55199 13.9634 7.964 13.6921 7.48301C13.475 7.0024 12.8228 6.84167 12.334 7.10901Z" />
<path d="M39.7691 16.5167L38.3567 13.951C37.922 13.1494 37.1073 12.6681 36.2379 12.6681H35.4232C34.2821 8.76613 31.0228 5.55888 26.5678 3.84859C25.6443 3.52793 24.612 3.79527 24.0144 4.4899C23.8515 4.70355 23.6339 4.86425 23.3626 5.0779L23.3622 1.97765C23.3622 0.854955 22.4387 0 21.3522 0H18.4729C17.3318 0 16.4629 0.908646 16.4629 1.97765V5.0779C16.1912 4.91757 15.974 4.70355 15.8111 4.4899C15.2135 3.74159 14.1812 3.47421 13.2577 3.84859C8.85733 5.50552 5.59752 8.76623 4.45685 12.6681H3.6421C2.77278 12.6681 1.95806 13.1491 1.52335 13.951L0.219015 16.5167C-0.106889 17.0513 -0.0526991 17.746 0.273204 18.2806C0.599107 18.8153 1.14252 19.0822 1.74013 19.0822H4.23936L8.04216 44.8464C8.31387 46.6103 10.0522 48 12.1167 48H27.9802C30.0447 48 31.7829 46.6637 32.0547 44.8464L35.8575 19.0822H38.3567C38.9543 19.0822 39.4978 18.7616 39.8236 18.2806C40.0408 17.7459 40.095 17.0509 39.7691 16.5167ZM12.0623 46.0225C11.03 46.0225 10.1607 45.4345 9.9978 44.5792L6.95559 24.1068H32.9782L29.936 44.5792C29.8822 45.3812 28.9583 46.0225 27.9264 46.0225H12.0623ZM3.7503 14.6993H36.2922C36.4009 14.6993 36.5093 14.8063 36.6181 14.9129L37.8675 17.1579L2.17466 17.1583L3.42408 14.9133C3.47865 14.753 3.58703 14.6993 3.74999 14.6993H3.7503ZM21.4066 5.87979C20.9719 5.9868 20.4831 6.04012 19.9942 6.04012C19.5053 6.04012 19.0165 5.9868 18.5818 5.87979V1.97784H21.4611L21.4066 5.87979ZM19.9942 8.0177C20.483 8.0177 20.9719 7.96438 21.4066 7.91069V12.668H18.5272V7.91069C19.0165 7.96438 19.5053 8.0177 19.9942 8.0177ZM21.4066 19.1358V22.1291H18.5272V19.1358H21.4066ZM16.5173 19.1358V22.1291H6.68415L6.24948 19.1358H16.5173ZM33.3044 22.1291H23.4712V19.1358H33.739L33.3044 22.1291ZM25.6442 5.7726C25.6442 5.7726 25.7529 5.71928 25.8613 5.7726C29.447 7.16227 32.1633 9.67454 33.304 12.7215H23.4708V7.37627C24.3943 6.9486 25.1549 6.41431 25.6437 5.7726H25.6442ZM14.0725 5.71928C14.1813 5.66596 14.2897 5.71928 14.2897 5.71928C14.8331 6.36059 15.5936 6.94859 16.5172 7.32295V12.6682H6.68398C7.82465 9.67496 10.4868 7.10895 14.0725 5.71928Z" />
<path d="M25.97 37.6304C26.0242 37.3631 26.0788 37.0424 26.0788 36.7218C26.0788 34.7975 24.5035 33.2476 22.5477 33.2476C21.57 33.2476 20.6461 33.6752 19.9944 34.3165C19.3426 33.6752 18.4732 33.2476 17.441 33.2476C15.4852 33.2476 13.9099 34.7975 13.9099 36.7218C13.9099 37.0425 13.9641 37.3631 14.0187 37.6304C12.4975 38.0048 11.3566 39.3944 11.3566 40.9981C11.3566 42.9223 12.9319 44.4723 14.8876 44.4723C15.8653 44.4723 16.7893 44.0446 17.441 43.4033C18.0928 44.0446 18.9622 44.4723 19.9944 44.4723C21.0266 44.4723 21.896 44.0446 22.5477 43.4033C23.1995 44.0446 24.0689 44.4723 25.1011 44.4723C27.0569 44.4723 28.6322 42.9223 28.6322 40.9981C28.5776 39.3944 27.4911 38.0581 25.97 37.6304ZM25.0461 42.5481C24.2314 42.5481 23.525 41.8531 23.525 41.0514C23.525 40.5704 23.7421 40.1428 24.0684 39.8755C24.2314 39.8221 24.3401 39.7151 24.4489 39.6618C24.6118 39.6085 24.8294 39.5548 24.9923 39.5548C25.8071 39.5548 26.5135 40.2498 26.5135 41.0515C26.5131 41.8531 25.9155 42.5481 25.0461 42.5481ZM19.9939 42.5481C19.1792 42.5481 18.4728 41.8531 18.4728 41.0514C18.4728 40.5704 18.6899 40.1428 19.0162 39.8755C19.1791 39.8221 19.2879 39.7151 19.3967 39.6618C19.5596 39.6085 19.7771 39.5548 19.9401 39.5548C20.1572 39.5548 20.3206 39.6081 20.4835 39.6618C20.5923 39.7688 20.7552 39.8221 20.864 39.8755C21.1899 40.1428 21.4074 40.5705 21.4074 41.0514C21.515 41.8531 20.8086 42.5481 19.9939 42.5481ZM14.9417 42.5481C14.127 42.5481 13.4206 41.8531 13.4206 41.0514C13.4206 40.2497 14.1269 39.5547 14.9417 39.5547C15.1589 39.5547 15.3222 39.6081 15.4851 39.6617C15.5939 39.7688 15.7568 39.8221 15.8656 39.8754C16.1915 40.1427 16.409 40.5704 16.409 41.0514C16.4628 41.853 15.7565 42.5481 14.9417 42.5481ZM15.9194 36.7218C15.9194 35.9202 16.6258 35.2252 17.4406 35.2252C18.2553 35.2252 18.9617 35.9202 18.9617 36.7218C18.9617 37.5235 18.2553 38.2185 17.4406 38.2185C16.6258 38.2185 15.9194 37.5768 15.9194 36.7218ZM22.5473 35.2252C23.362 35.2252 24.0684 35.9202 24.0684 36.7218C24.0684 37.5235 23.3621 38.2185 22.5473 38.2185C21.7325 38.2185 21.0261 37.5235 21.0261 36.7218C21.0261 35.9198 21.6779 35.2252 22.5473 35.2252Z" />
</g>
<defs>
<clipPath id="clip0_885_1219">
<rect width="40" height="48"/>
</clipPath>
</defs>
</svg>
