<svg width="52" height="52" viewBox="0 0 52 52" xmlns="http://www.w3.org/2000/svg">
<g clip-path="url(#clip0_884_1193)">
<path fill-rule="evenodd" clip-rule="evenodd" d="M22.6666 0.080458C21.5471 0.32107 20.4903 1.10713 20.0654 2.01508C19.5366 3.14538 7.999 40.3545 8 40.9267C8.00261 42.4159 9.43091 43.683 10.8851 43.4861C11.1295 43.4529 12.953 42.9341 14.9371 42.3332C16.9213 41.7321 18.5883 41.2404 18.6414 41.2404C18.7008 41.2404 18.7499 42.4599 18.7685 44.3944L18.7989 47.5484L19.1296 48.2119C20.3179 50.5954 23.7092 50.5963 24.897 48.2133L25.2285 47.5482L25.287 39.1591L25.8605 38.9951C26.176 38.9049 26.4858 38.8119 26.549 38.7884C26.6313 38.7578 26.6741 39.1911 26.6997 40.3157C26.7634 43.1092 28.1744 44.6159 30.3778 44.243C32.6295 43.8619 33.2154 42.7907 33.2154 39.0548V36.7069L33.8167 36.5417C34.1474 36.4509 34.4573 36.3765 34.5055 36.3765C34.5535 36.3765 34.6184 36.7098 34.6495 37.117C34.9069 40.4788 39.401 41.322 40.8336 38.2772C41.0773 37.7591 41.1013 37.586 41.1498 35.9941L41.2023 34.2715L45.472 32.9581C50.2594 31.4856 50.3649 31.4426 51.0755 30.6743C52.0791 29.5894 52.2503 28.4544 51.6636 26.7746C47.4015 14.572 38.9029 5.69722 27.0871 1.1103C24.2816 0.0211983 23.639 -0.128489 22.6666 0.080458ZM24.8769 2.42851C35.8106 6.24912 44.0418 13.889 48.5655 24.4154C50.4225 28.7365 50.3934 29.378 48.3115 30.0211C47.78 30.1851 47.339 30.3087 47.3315 30.2957C47.3238 30.2826 47.05 29.6019 46.7227 28.783C42.3106 17.742 34.0703 9.58026 22.9681 5.25461C21.17 4.55401 21.2922 4.69576 21.6066 3.67713C22.1505 1.91522 22.7515 1.68583 24.8769 2.42851ZM22.4075 7.25405C31.8791 10.9838 39.1705 17.6998 43.5174 26.6985C44.4701 28.6706 45.3294 30.8027 45.2126 30.9045C45.1619 30.9487 43.8771 31.3527 42.3576 31.8023C39.986 32.5042 39.5558 32.6612 39.3186 32.9116L39.0423 33.2033V35.1968C39.0423 37.7248 38.8576 38.1633 37.7926 38.1633C36.8874 38.1633 36.6313 37.6885 36.6308 36.0093C36.6304 34.54 36.5049 34.1987 35.8916 33.9987C35.4239 33.8462 31.7256 34.9279 31.3066 35.3397L31.0554 35.5866L31.0052 38.5376C30.9457 42.0303 30.8776 42.233 29.7621 42.233C28.8048 42.233 28.5961 41.6485 28.5924 38.9573C28.5882 35.9348 28.5693 35.9217 25.4953 36.8326C23.9525 37.2898 23.5723 37.4393 23.3448 37.678L23.0686 37.9679V42.3867C23.0686 45.9741 23.0418 46.8688 22.9263 47.1419C22.5591 48.0101 21.3088 48.1062 20.8288 47.3033C20.6754 47.0466 20.6574 46.6225 20.6574 43.2572C20.6574 37.8877 21.2011 38.1845 14.8933 40.1104C10.15 41.5585 9.9936 41.5874 9.9275 41.0279C9.91072 40.8857 12.2974 33.1813 15.2315 23.907C18.1654 14.6326 20.5896 6.96639 20.6185 6.8708C20.697 6.61093 20.8662 6.64716 22.4075 7.25405Z"/>
<path fill-rule="evenodd" clip-rule="evenodd" d="M18.5788 30.3403C18.5604 32.8022 21.5901 33.9512 23.2342 32.1057C24.4544 30.7361 23.9279 28.5826 22.1982 27.8686C20.5296 27.1797 18.5926 28.5025 18.5788 30.3403ZM27.5347 17.4523C28.942 16.1769 28.6004 13.9903 26.8592 13.1275C24.6589 12.0372 22.3024 14.3753 23.3172 16.6419C24.0576 18.2958 26.1585 18.6995 27.5347 17.4523ZM37.3699 23.4849C39.3793 24.5114 39.4402 27.2892 37.4752 28.2731C34.7988 29.613 32.2325 26.3418 34.2388 24.1477C35.0216 23.2915 36.4145 22.9967 37.3699 23.4849ZM36.794 26.9449C37.5623 26.5603 37.6974 25.3284 36.6777 24.8075C36.4001 24.6656 35.7359 24.7315 35.3571 25.1458C34.5214 26.0597 35.5405 27.5725 36.794 26.9449ZM26.1836 14.4585C25.7414 14.2393 25.292 14.3375 24.9504 14.6765C24.6043 15.0199 24.4654 15.526 24.6954 16.0396C24.9993 16.7185 25.8642 16.9459 26.516 16.3551C27.1082 15.8184 27.0273 14.8765 26.1836 14.4585ZM21.6173 29.2424C21.3191 29.1193 20.9559 29.1556 20.6248 29.3818C20.293 29.6084 20.0886 29.9649 20.0858 30.3513C20.0775 31.4458 21.3876 31.925 22.1031 31.1219C22.6183 30.5436 22.4285 29.5773 21.6173 29.2424Z"/>
<path d="M34.1224 19.6296C34.6128 18.6086 33.2743 17.6781 32.4652 18.4776C32.2399 18.7001 32.1715 18.8589 32.1715 19.159C32.1715 20.266 33.6459 20.6217 34.1224 19.6296Z" />
<path d="M28.3517 24.3113C28.347 23.4448 27.5288 22.9911 26.7819 23.441C25.8326 24.0129 26.3688 25.4505 27.4768 25.3037C28.0445 25.2284 28.3547 24.8765 28.3517 24.3113Z" />
<path d="M19.3129 22.5075C19.1264 21.9492 19.4477 21.4391 20.1159 21.2325C20.657 21.0653 21.3214 21.6351 21.3214 22.2664C21.3214 23.4291 19.6863 23.6254 19.3129 22.5075Z" />
<path d="M28.3539 32.2167C28.3539 32.0628 28.4867 31.8338 28.6955 31.6276C29.6535 30.681 31.0937 31.986 30.1874 32.9794C29.5098 33.722 28.3539 33.2411 28.3539 32.2167Z" />
<path d="M14.4045 35.3129C14.0258 35.6278 13.9307 36.0257 14.1247 36.4845C14.5736 37.546 16.0973 37.2053 16.0973 36.0434C16.0973 35.1961 15.0755 34.7551 14.4045 35.3129Z"/>
</g>
<defs>
<clipPath id="clip0_884_1193">
<rect width="52" height="52"/>
</clipPath>
</defs>
</svg>
