<svg width="126" height="32" viewBox="0 0 126 32" fill="none" xmlns="http://www.w3.org/2000/svg">
<path fill-rule="evenodd" clip-rule="evenodd" d="M35.2529 1.06373C28.4778 1.92211 25.0547 9.24065 28.3285 15.8677C30.4961 20.2555 36.7522 22.0006 41.0012 19.4025C42.0645 18.7522 42.0635 18.8193 41.0348 17.3959L40.196 16.2354L39.6139 16.6403C36.9127 18.5207 32.3897 17.107 30.9833 13.9426C28.3662 8.05451 33.7006 2.04006 39.1161 4.77337C40.0331 5.23631 40.2834 5.3033 40.3889 5.11427C40.461 4.9849 40.8259 4.46094 41.1994 3.94976C42.0075 2.8444 42.0007 2.79651 40.9484 2.19431C39.2676 1.23264 37.1841 0.818965 35.2529 1.06373ZM51.6369 1.03918C45.6716 2.14863 42.2267 8.17348 44.1784 14.0833C47.145 23.0656 60.1607 22.6844 62.2407 13.5544C63.9172 6.19628 58.4708 -0.23168 51.6369 1.03918ZM87.1535 0.981402C81.3862 1.89262 78.0467 7.09011 79.2618 13.2641C81.0755 22.4797 94.2969 23.2268 97.315 14.2842C99.7217 7.153 94.1618 -0.125661 87.1535 0.981402ZM105.467 1.05504C103.914 1.31463 101.877 2.52584 101.374 3.48904C101.162 3.89607 101.2 3.99306 102.018 5.12484C103.045 6.54586 102.872 6.48382 103.445 5.63533C105.073 3.2257 108.503 3.78647 108.505 6.46252C108.506 7.86582 107.705 9.04089 105.194 11.3162C102.071 14.1465 100.741 16.3272 100.569 18.8984L100.486 20.1342H111.497V17.2366H107.924C105.036 17.2366 104.352 17.1924 104.352 17.0065C104.352 16.5909 105.376 15.3148 106.828 13.9201C110.35 10.5398 110.946 9.7624 111.405 7.95394C112.098 5.2225 111.272 2.88668 109.216 1.76632C108.368 1.30406 107.977 1.18577 106.595 0.973221C106.412 0.945097 105.905 0.981914 105.467 1.05504ZM119.2 1.0535C117.693 1.26367 114.82 3.05951 114.82 3.79039C114.82 3.95402 116.521 6.30519 116.648 6.31627C116.693 6.32036 116.896 6.06281 117.097 5.74407C118.699 3.2061 122.14 3.68165 122.128 6.43933C122.121 7.91133 121.679 8.56449 118.57 11.697C115.01 15.2837 114.192 16.7917 114.159 19.8359C114.155 20.1141 114.53 20.1342 119.728 20.1342H125.302L125.205 17.3218L121.591 17.2758C119.604 17.2505 117.977 17.1943 117.977 17.1507C117.977 16.7029 119.412 14.9875 121.437 13.0152C124.253 10.2724 124.963 9.18202 125.287 7.10528C125.872 3.35013 123.024 0.519487 119.2 1.0535ZM0 1.42781C0 1.45815 0.567121 2.74571 1.26019 4.28896C1.95327 5.8322 2.84258 7.82355 3.23639 8.71414C3.63021 9.60473 4.41683 11.3689 4.98428 12.6345C5.5519 13.9 6.37409 15.7409 6.8116 16.7252C8.95313 21.544 8.51562 21.5631 10.7198 16.5548C11.1116 15.6642 11.913 13.8617 12.5006 12.5492C15.6002 5.62544 17.2812 1.76905 17.2812 1.58172C17.2812 1.42764 16.8809 1.38502 15.7709 1.42099L14.2608 1.47008L13.3425 3.51546C12.8376 4.64042 11.9461 6.63467 11.3614 7.94712C9.14904 12.9126 8.8865 13.4717 8.76404 13.479C8.60568 13.4887 7.83883 11.872 5.25114 6.07219L3.19768 1.47008L1.59884 1.42133C0.719494 1.3944 0 1.3973 0 1.42781ZM20.4383 4.28248H23.4293V1.38485H20.4383V4.28248ZM66.2998 20.1342H78.0975V17.2366H69.2908V1.38485H66.2998V20.1342ZM55.7644 4.64366C59.068 5.90992 60.5895 10.391 58.9119 13.9128C56.744 18.464 49.7662 18.6158 47.5607 14.1598C44.6508 8.28086 49.7679 2.34533 55.7644 4.64366ZM89.9286 4.30361C97.4549 5.9418 96.1191 17.31 88.3997 17.3146C84.3754 17.317 82.1686 14.9955 82.1686 10.7595C82.1686 6.10986 85.4985 3.33956 89.9286 4.30361ZM21.8096 5.77902L20.4394 6.92443L20.4383 20.1342H23.4293V12.3788C23.4293 8.11331 23.3731 4.62576 23.3046 4.62849C23.2362 4.63139 22.5634 5.14921 21.8096 5.77902Z" fill="white"/>
<path d="M62.1135 24.9114C63.6226 30.8935 70.4649 33.7357 76.6958 30.6576C78.9484 29.5448 80.5045 27.3545 81.134 24.9114H77.7331C77.1384 26.251 76.1118 27.4068 74.7708 28.0028C70.8211 29.7583 66.8146 27.936 65.4296 24.9114H62.1135Z" fill="white"/>
</svg>
