<svg width="110" height="649" viewBox="0 0 110 649" fill="none" xmlns="http://www.w3.org/2000/svg">
<path d="M108 615.69C94.6667 621.663 78.88 627.69 60.64 633.77C42.4 639.743 25.0667 644.757 8.63999 648.81L7.52 624.81C20 621.93 33.3867 618.41 47.68 614.25C61.8667 609.983 74.2933 605.93 84.96 602.09L84.96 600.49C74.5067 596.65 62.1333 592.597 47.84 588.33C33.5467 584.063 20.1067 580.49 7.51999 577.61L8.63999 553.45C25.0667 557.503 42.4 562.57 60.64 568.65C78.88 574.623 94.6667 580.597 108 586.57L108 615.69ZM0.639995 549.201L0.639994 525.201L22.08 525.201L22.08 549.201L0.639995 549.201ZM32.48 549.041L32.48 525.361L108 525.361L108 549.041L32.48 549.041ZM109.6 468.662C109.6 484.556 105.6 496.716 97.6 505.142C89.4933 513.462 77.44 517.622 61.44 517.622C44.9067 517.622 31.7333 513.622 21.92 505.622C12.1067 497.622 7.19998 485.729 7.19998 469.942C7.19998 456.609 9.70665 445.142 14.72 435.542L21.44 435.542C25.0667 435.542 28.9067 435.756 32.96 436.182C37.0133 436.502 40.2133 436.982 42.56 437.622L42.56 457.462L30.72 459.062C29.8667 462.582 29.44 466.956 29.44 472.182C29.44 478.049 30.08 483.916 31.36 489.782C40.2133 492.342 49.92 493.622 60.48 493.622C69.8667 493.622 76.6933 491.596 80.96 487.542C85.2267 483.489 87.36 476.662 87.36 467.062C87.36 461.196 86.72 456.022 85.44 451.542C84.0533 446.956 82.1333 442.636 79.68 438.582L98.4 429.302C102.133 434.422 104.96 440.076 106.88 446.262C108.693 452.449 109.6 459.916 109.6 468.662ZM109.44 383.074C109.44 397.794 105.28 408.834 96.96 416.194C88.5333 423.447 76.2133 427.074 60 427.074C42.6133 427.074 29.4933 422.86 20.64 414.434C11.68 406.007 7.19998 393.9 7.19998 378.114C7.19998 363.394 11.4133 352.407 19.84 345.154C28.16 337.794 40.4267 334.114 56.64 334.114C74.0267 334.114 87.2 338.327 96.16 346.754C105.013 355.18 109.44 367.287 109.44 383.074ZM87.36 379.714C87.36 372.887 86.4 367.074 84.48 362.274C80.5333 360.674 76.5867 359.554 72.64 358.914C68.5867 358.167 64.0533 357.794 59.04 357.794C52.1067 357.794 46.5067 358.434 42.24 359.714C37.9733 360.887 34.7733 363.234 32.64 366.754C30.4 370.167 29.28 375.074 29.28 381.474C29.28 388.3 30.24 394.114 32.16 398.914C36.1067 400.514 40.0533 401.687 44 402.434C47.84 403.074 52.3733 403.394 57.6 403.394C64.5333 403.394 70.1333 402.807 74.4 401.634C78.6667 400.354 81.92 398.007 84.16 394.594C86.2933 391.074 87.36 386.114 87.36 379.714ZM8.79998 326.587L8.79998 302.587L85.6 302.587L85.6 258.907L108 258.907L108 326.587L8.79998 326.587ZM109.44 217.899C109.44 232.619 105.28 243.659 96.96 251.019C88.5333 258.272 76.2133 261.899 60 261.899C42.6133 261.899 29.4933 257.685 20.64 249.259C11.68 240.832 7.19997 228.725 7.19997 212.939C7.19997 198.219 11.4133 187.232 19.84 179.979C28.16 172.619 40.4266 168.939 56.64 168.939C74.0266 168.939 87.2 173.152 96.16 181.579C105.013 190.005 109.44 202.112 109.44 217.899ZM87.36 214.539C87.36 207.712 86.4 201.899 84.48 197.099C80.5333 195.499 76.5866 194.379 72.64 193.739C68.5866 192.992 64.0533 192.619 59.04 192.619C52.1066 192.619 46.5066 193.259 42.24 194.539C37.9733 195.712 34.7733 198.059 32.64 201.579C30.4 204.992 29.28 209.899 29.28 216.299C29.28 223.125 30.24 228.939 32.16 233.739C36.1066 235.339 40.0533 236.512 44 237.259C47.84 237.899 52.3733 238.219 57.6 238.219C64.5333 238.219 70.1333 237.632 74.4 236.459C78.6666 235.179 81.92 232.832 84.16 229.419C86.2933 225.899 87.36 220.939 87.36 214.539ZM77.44 164.932C72.1066 151.919 67.7333 141.946 64.32 135.012C60.8 127.972 57.0666 122.479 53.12 118.532C49.0666 114.479 44.5333 112.452 39.52 112.452C36.8533 112.452 34.9866 113.412 33.92 115.332C32.7466 117.146 32.16 120.292 32.16 124.772C32.16 129.999 32.7466 134.586 33.92 138.532L45.76 138.532L45.76 159.012C39.68 160.826 32.8533 161.732 25.28 161.732L18.72 161.732C13.1733 150.319 10.4 137.839 10.4 124.292C10.4 100.399 19.3066 88.4525 37.12 88.4525C45.12 88.4525 52 90.3725 57.76 94.2125C63.4133 97.9458 68.5333 103.652 73.12 111.332C77.6 119.012 82.24 129.359 87.04 142.372L87.68 142.372L87.68 107.972L79.2 107.972L79.2 87.4925C81.9733 86.6392 85.2266 85.9992 88.96 85.5725C92.5866 85.1458 96.0533 84.9325 99.36 84.9325L108 84.9325L108 164.932L77.44 164.932ZM77.44 80.0012C72.1066 66.9879 67.7333 57.0146 64.32 50.0812C60.8 43.0412 57.0666 37.5479 53.12 33.6012C49.0666 29.5479 44.5333 27.5212 39.52 27.5212C36.8533 27.5212 34.9866 28.4812 33.92 30.4012C32.7466 32.2146 32.16 35.3612 32.16 39.8412C32.16 45.0679 32.7466 49.6546 33.92 53.6012L45.76 53.6012L45.76 74.0812C39.68 75.8946 32.8533 76.8012 25.28 76.8012L18.72 76.8012C13.1733 65.3879 10.4 52.9079 10.4 39.3612C10.4 15.4679 19.3066 3.52122 37.12 3.52122C45.12 3.52122 52 5.44122 57.76 9.28122C63.4133 13.0146 68.5333 18.7212 73.12 26.4012C77.6 34.0812 82.24 44.4279 87.04 57.4412L87.68 57.4412L87.68 23.0412L79.2 23.0412L79.2 2.56122C81.9733 1.70788 85.2266 1.06788 88.96 0.641213C92.5866 0.214545 96.0533 0.00121128 99.36 0.00121113L108 0.00121075L108 80.0012L77.44 80.0012Z" fill="#F8F8F8"/>
</svg>
