<svg width="52" height="52" viewBox="0 0 52 52" xmlns="http://www.w3.org/2000/svg">
<path d="M26.3173 10.5633C26.839 10.5633 27.3085 10.146 27.3085 9.57214C27.3085 8.99829 26.8911 8.58093 26.3173 8.58093C25.7955 8.58093 25.326 8.99829 25.326 9.57214C25.326 10.146 25.7958 10.5633 26.3173 10.5633Z" />
<path d="M17.4495 10.5633C17.9713 10.5633 18.4407 10.146 18.4407 9.57214C18.4407 8.99829 18.0233 8.58093 17.4495 8.58093C16.9277 8.58093 16.4583 8.99829 16.4583 9.57214C16.4583 10.146 16.8756 10.5633 17.4495 10.5633Z" />
<path d="M35.1852 10.5633C35.707 10.5633 36.1764 10.146 36.1764 9.57214C36.1764 8.99829 35.759 8.58093 35.1852 8.58093C34.6634 8.58093 34.194 8.99829 34.194 9.57214C34.1943 10.146 34.6637 10.5633 35.1852 10.5633Z" />
<path d="M21.8834 15.8841C22.4052 15.8841 22.8746 15.4667 22.8746 14.8929C22.8746 14.3711 22.4573 13.9017 21.8834 13.9017C21.3616 13.9017 20.8922 14.319 20.8922 14.8929C20.8922 15.4143 21.3616 15.8841 21.8834 15.8841Z" />
<path d="M13.0155 15.8841C13.5373 15.8841 14.0067 15.4667 14.0067 14.8929C14.0067 14.3711 13.5894 13.9017 13.0155 13.9017C12.4937 13.9017 12.0243 14.319 12.0243 14.8929C12.0247 15.4143 12.442 15.8841 13.0155 15.8841Z" />
<path d="M30.7512 15.8841C31.273 15.8841 31.7424 15.4667 31.7424 14.8929C31.7424 14.3711 31.3251 13.9017 30.7512 13.9017C30.2294 13.9017 29.76 14.319 29.76 14.8929C29.76 15.4143 30.2294 15.8841 30.7512 15.8841Z" />
<path d="M39.8278 15.8841C40.3495 15.8841 40.819 15.4667 40.819 14.8929C40.819 14.3711 40.4016 13.9017 39.8278 13.9017C39.306 13.9017 38.8365 14.319 38.8365 14.8929C38.8886 15.4143 39.3059 15.8841 39.8278 15.8841Z" />
<path d="M49.8955 35.6021C49.8955 34.4545 48.9567 33.5158 47.8091 33.5158H46.7659C46.7659 33.4113 46.8179 33.2549 46.8179 33.1504V30.9076C46.8179 30.6991 46.8179 30.5422 46.7659 30.3337C47.5482 29.9684 48.1221 29.0296 48.1221 27.9864V26.0041C48.1221 24.9609 47.6003 24.0218 46.818 23.6568C46.818 23.5524 46.87 23.4483 46.87 23.3439V21.57H47.1829C47.9652 21.57 48.6955 21.2571 49.2173 20.6313C49.7391 20.0574 49.9476 19.2751 49.7911 18.5449C48.383 9.67672 38.3672 3 26.4216 3C14.4761 3 4.46058 9.677 3.10431 18.4406C2.99988 19.1708 3.20874 19.9531 3.67813 20.5269C4.19992 21.1008 4.93016 21.4657 5.71253 21.4657H6.02546V23.2396C6.02546 23.344 6.02546 23.4481 6.07749 23.5525C5.29518 23.9178 4.77339 24.8566 4.77339 25.8998V27.8821C4.77339 28.9777 5.34722 29.8644 6.12956 30.2294C6.07753 30.3859 6.07753 30.5947 6.07753 30.8032V33.0461C6.07753 33.1505 6.07753 33.307 6.12956 33.4114H5.08638C3.93877 33.4114 3 34.3502 3 35.4978V38.8883C3 42.1224 5.6082 44.7306 8.84228 44.7306H44.1574C47.3914 44.7306 49.9996 42.1224 49.9996 38.8883L50 35.6026L49.8955 35.6021ZM4.87787 38.9926V38.7841C5.13877 38.8885 5.34726 39.045 5.60815 39.2015C6.23401 39.6188 6.96432 40.1402 8.42482 40.1402C9.83335 40.1402 10.6157 39.6184 11.2415 39.2015C11.7633 38.8361 12.1282 38.5756 12.9629 38.5756C13.7976 38.5756 14.1626 38.8365 14.6843 39.2015C15.3102 39.6188 16.0405 40.1402 17.501 40.1402C18.9095 40.1402 19.6919 39.6184 20.3177 39.2015C20.8395 38.8361 21.2044 38.5756 22.0391 38.5756C22.8738 38.5756 23.2388 38.8365 23.7605 39.2015C24.3864 39.6188 25.1167 40.1402 26.5772 40.1402C27.9857 40.1402 28.7681 39.6184 29.3938 39.2015C29.9156 38.8361 30.2806 38.5756 31.1153 38.5756C31.9499 38.5756 32.3149 38.8365 32.8367 39.2015C33.4625 39.6188 34.1928 40.1402 35.6533 40.1402C37.0619 40.1402 37.8442 39.6184 38.47 39.2015C38.9918 38.8361 39.3568 38.5756 40.1914 38.5756C41.0261 38.5756 41.3911 38.8365 41.9128 39.2015C42.5387 39.6188 43.269 40.1402 44.7295 40.1402C46.138 40.1402 46.9204 39.6184 47.5462 39.2015C47.8071 39.045 48.0156 38.8885 48.2765 38.7841V38.9926C48.2765 41.1314 46.5551 42.9049 44.3642 42.9049H8.73797C6.59916 42.9049 4.87787 41.1314 4.87787 38.9926ZM4.9823 35.4456H34.768L35.1333 35.915C35.6551 36.5933 36.3853 36.9582 37.2197 36.9582C38.0544 36.9582 38.8367 36.5929 39.3061 35.915L39.6714 35.4456H47.7569C47.8089 35.4456 47.9134 35.4977 47.9134 35.6021V36.7497C47.0787 36.9062 46.5572 37.2715 46.0874 37.5844C45.5657 37.9497 45.2007 38.2103 44.366 38.2103C43.5314 38.2103 43.1663 37.9494 42.6446 37.5844C42.0188 37.1671 41.2884 36.6457 39.8279 36.6457C38.4194 36.6457 37.6371 37.1674 37.0113 37.5844C36.4895 37.9497 36.1245 38.2103 35.2899 38.2103C34.4552 38.2103 34.0902 37.9494 33.5684 37.5844C32.9426 37.1671 32.2123 36.6457 30.7518 36.6457C29.3432 36.6457 28.5609 37.1674 27.9351 37.5844C27.4133 37.9497 27.0484 38.2103 26.2137 38.2103C25.379 38.2103 25.014 37.9494 24.4923 37.5844C23.8664 37.1671 23.1361 36.6457 21.6756 36.6457C20.2671 36.6457 19.4847 37.1674 18.8589 37.5844C18.3371 37.9497 17.9722 38.2103 17.1375 38.2103C16.3028 38.2103 15.9378 37.9494 15.4161 37.5844C14.7902 37.1671 14.0599 36.6457 12.5994 36.6457C11.1909 36.6457 10.4085 37.1674 9.78275 37.5844C9.26096 37.9497 8.896 38.2103 8.06133 38.2103C7.22666 38.2103 6.86165 37.9494 6.33992 37.5844C5.87053 37.2715 5.34871 36.9062 4.51399 36.7497V35.6021C4.87822 35.4977 4.93027 35.4456 4.9823 35.4456ZM7.95584 33.1503V30.9075C7.95584 30.751 8.1123 30.5945 8.32116 30.5421H31.0647L33.36 33.5676H8.42559C8.16469 33.5152 7.95584 33.3588 7.95584 33.1503ZM44.888 30.855V33.0979C44.888 33.3064 44.6795 33.4632 44.4186 33.4632H41.1845L43.4798 30.4377H44.523C44.7315 30.5421 44.888 30.6986 44.888 30.855ZM6.91256 28.5597C6.86052 28.5597 6.65166 28.2988 6.65166 27.9338V25.9515C6.65166 25.5862 6.80813 25.3777 6.91256 25.3257H45.9313C45.9833 25.3257 46.1922 25.5866 46.1922 25.9515V27.9338C46.1922 28.2992 46.0357 28.5077 45.9313 28.5597H43.0102C42.6973 28.5597 42.4364 28.7162 42.2279 28.925L37.8462 34.7673C37.6897 34.9238 37.5333 35.0282 37.2724 35.0282C37.0639 35.0282 36.855 34.9238 36.6985 34.7673L32.3168 28.925C32.1083 28.6641 31.8475 28.5597 31.5345 28.5597H6.91256ZM44.888 21.6219V23.2913C44.888 23.3957 44.836 23.4478 44.836 23.4478H27.4653C27.4653 23.4478 27.4133 23.3957 27.4133 23.2913V21.6219C27.4133 21.5174 27.4653 21.5175 27.4653 21.5175H44.836C44.836 21.4654 44.888 21.5174 44.888 21.6219ZM5.13898 19.2746C5.08695 19.1702 4.93048 19.0137 4.98252 18.7528C5.55634 14.997 8.00803 11.5541 11.8684 8.99812C15.8327 6.38992 20.9971 4.92933 26.37 4.92933C31.7429 4.92933 36.9071 6.38992 40.8716 8.99812C44.7318 11.5543 47.1836 14.9968 47.7574 18.7528C47.8095 19.0137 47.653 19.2222 47.601 19.2746C47.5489 19.379 47.3401 19.5355 47.0792 19.5355H5.71306C5.40014 19.5355 5.24341 19.379 5.13898 19.2746ZM25.3786 21.4655C25.3786 21.4655 25.4307 21.5175 25.4307 21.5699V23.2393C25.4307 23.3438 25.3786 23.3958 25.3786 23.3958L8.008 23.3954C8.008 23.3954 7.95597 23.3434 7.95597 23.239V21.5695C7.95597 21.4651 8.008 21.4651 8.008 21.4651L25.3786 21.4655Z" />
</svg>
