<svg width="54" height="47" viewBox="0 0 54 47" xmlns="http://www.w3.org/2000/svg">
<path d="M51.2999 33.2437H49.4542C49.2267 30.3287 47.9081 27.6046 45.7597 25.6125C43.6109 23.6199 40.7897 22.5042 37.8538 22.4866L38.4838 21.0155C38.577 20.7966 38.5798 20.5497 38.491 20.3288L37.6758 18.3161L43.8858 3.81239C44.1904 3.15168 44.2141 2.39694 43.9505 1.71893C43.6873 1.0414 43.1598 0.498352 42.4884 0.214158C41.8166 -0.0699755 41.0581 -0.0715838 40.3855 0.210556C39.7129 0.492291 39.1833 1.03335 38.9177 1.71052L32.7077 16.2143L30.6963 17.0166C30.4745 17.1055 30.2973 17.278 30.2037 17.4969V17.5025C29.0133 15.8501 27.4114 14.5346 25.5555 13.6854C26.4611 13.0139 26.9963 11.9566 26.9999 10.832V8.14271C26.9999 7.905 26.9051 7.67689 26.7364 7.50881C26.5676 7.34073 26.3386 7.24628 26.0999 7.24628H23.3999C22.3621 7.24948 21.3769 7.7017 20.6999 8.4853C20.0229 7.70173 19.0377 7.24956 17.9999 7.24628H15.2999C14.8029 7.24628 14.3999 7.64768 14.3999 8.14271V10.832C14.4031 11.9577 14.9391 13.0162 15.8463 13.6882C13.8068 14.615 12.0775 16.1058 10.8638 17.9831C9.64996 19.8608 9.00309 22.0454 8.9999 24.2785C8.9999 24.5178 9.00793 24.7411 9.0224 24.956C6.42484 26.967 4.79918 29.9756 4.54574 33.2428H2.69997C1.73528 33.2428 0.844111 33.7555 0.361608 34.5875C-0.120536 35.4195 -0.120536 36.4448 0.361608 37.2768C0.844152 38.1088 1.73527 38.6214 2.69997 38.6214H9.97187C10.1892 40.1133 10.9378 41.4772 12.0813 42.4649C13.2247 43.4522 14.6864 43.9972 16.2 44H37.8C39.3136 43.9972 40.7753 43.4521 41.9187 42.4649C43.0622 41.4772 43.8108 40.1134 44.0281 38.6214H51.3C52.2647 38.6214 53.1559 38.1088 53.6384 37.2768C54.1205 36.4448 54.1205 35.4195 53.6384 34.5875C53.1558 33.7555 52.2646 33.2437 51.2999 33.2437ZM45.8469 33.2437C45.5412 30.5981 43.9441 28.2726 41.5792 27.03C39.2143 25.7874 36.3857 25.7874 34.0208 27.03C31.6559 28.2726 30.0588 30.5981 29.7531 33.2437H27.9459C28.2432 29.9454 30.1838 27.0159 33.1117 25.4464C36.0391 23.8769 39.5628 23.8769 42.4906 25.4464C45.4184 27.0159 47.3591 29.9454 47.656 33.2437H45.8469ZM42.2099 33.2437C41.9323 31.8823 41.0367 30.7257 39.7847 30.113C38.5332 29.5003 37.0666 29.5003 35.8151 30.113C34.5631 30.7257 33.6675 31.8823 33.3899 33.2437H31.5718C31.8611 31.2367 33.1075 29.4936 34.9167 28.5647C36.7256 27.6354 38.8744 27.6354 40.6831 28.5647C42.4924 29.4935 43.7387 31.2367 44.028 33.2437H42.2099ZM40.3351 33.2437H35.2654C35.5113 32.5406 36.0405 31.9715 36.7255 31.6734C37.4105 31.3756 38.1891 31.3756 38.8743 31.6734C39.5593 31.9715 40.0893 32.5406 40.3351 33.2437ZM31.7132 18.5423L33.7246 17.7355C33.9464 17.647 34.124 17.4745 34.218 17.256L40.5739 2.40601C40.7691 1.95219 41.2963 1.74129 41.7527 1.93458C41.9713 2.02582 42.144 2.20031 42.2324 2.41961C42.3236 2.63892 42.3236 2.88584 42.2324 3.10514L35.8738 17.9562C35.7802 18.1755 35.7778 18.4228 35.8678 18.6437L36.6822 20.6563L35.82 22.6653C34.6175 22.8678 33.4547 23.2584 32.3747 23.8226C32.318 22.3071 31.9624 20.8176 31.328 19.4389L31.7132 18.5423ZM23.3999 9.04008H25.1999V10.8329C25.1999 11.3084 25.0102 11.7646 24.6727 12.1008C24.3353 12.4369 23.8772 12.6258 23.3999 12.6258H21.5999V10.8329C21.5999 10.3575 21.7895 9.90129 22.127 9.56514C22.4645 9.22898 22.9226 9.04008 23.3999 9.04008ZM16.1999 9.04008H17.9999C18.4772 9.04008 18.9352 9.22898 19.2727 9.56514C19.6102 9.90129 19.7999 10.3575 19.7999 10.8329V12.6258H17.9999C17.5226 12.6258 17.0645 12.4369 16.727 12.1008C16.3895 11.7646 16.1999 11.3084 16.1999 10.8329V9.04008ZM20.6999 14.4187C23.3248 14.4219 25.8407 15.4616 27.697 17.3101C29.5528 19.159 30.5966 21.665 30.5999 24.2794C30.5999 24.5359 30.5882 24.7697 30.5722 24.9966C29.0024 26.2251 27.7729 27.8319 26.9999 29.6652C25.5001 26.091 22.3203 23.4894 18.5094 22.7171C18.9546 22.0944 19.6452 21.6905 20.4078 21.6065C21.1704 21.5225 21.933 21.7662 22.5039 22.2764C23.0753 22.7867 23.4011 23.5151 23.3999 24.2794H25.1999C25.1983 22.8947 24.5543 21.5885 23.455 20.7409C22.3556 19.8933 20.9249 19.5991 19.5785 19.9442C18.2325 20.2891 17.1215 21.2348 16.5699 22.5054C16.4457 22.501 16.3248 22.4866 16.1998 22.4866C15.6755 22.4906 15.1519 22.5298 14.6329 22.6038C15.1842 20.6421 16.6576 19.0689 18.5841 18.3846C20.5106 17.7002 22.6509 17.9904 24.324 19.1621C25.9971 20.3339 26.9947 22.242 27 24.2794C27.0004 24.5431 26.9847 24.8064 26.9521 25.0681L28.7405 25.2835C28.7807 24.9501 28.8008 24.6147 28.8 24.2794C28.8016 21.5481 27.415 19.0016 25.1156 17.5137C22.8163 16.0254 19.9169 15.7981 17.4121 16.9094C14.9071 18.0204 13.1372 20.3195 12.7096 23.0171C12.0579 23.2224 11.4255 23.4846 10.8196 23.8007C10.943 21.2727 12.0374 18.8888 13.8768 17.1423C15.7158 15.3959 18.159 14.4208 20.6999 14.4187ZM16.1999 24.2794C18.6685 24.2826 21.0466 25.2035 22.8691 26.8614C24.6921 28.5195 25.8275 30.7953 26.0541 33.2437H24.2469C23.9412 30.5981 22.3441 28.2726 19.9792 27.03C17.6143 25.7874 14.7857 25.7874 12.4208 27.03C10.0559 28.2726 8.45873 30.5981 8.15304 33.2437H6.34584C6.57244 30.7954 7.70787 28.5195 9.53081 26.8614C11.3533 25.2034 13.7313 24.2826 16.1999 24.2794ZM20.6099 33.2437C20.3323 31.8823 19.4367 30.7257 18.1847 30.113C16.9331 29.5003 15.4666 29.5003 14.215 30.113C12.9631 30.7257 12.0675 31.8823 11.7899 33.2437H9.97176C10.2611 31.2367 11.5074 29.4936 13.3167 28.5647C15.1255 27.6354 17.2743 27.6354 19.0831 28.5647C20.8923 29.4935 22.1386 31.2367 22.428 33.2437H20.6099ZM18.7351 33.2437H13.6654C13.9113 32.5406 14.4404 31.9715 15.1254 31.6734C15.8105 31.3756 16.5891 31.3756 17.2742 31.6734C17.9593 31.9715 18.4893 32.5406 18.7351 33.2437ZM37.7997 42.208H16.1997C15.1627 42.2068 14.1577 41.8495 13.3542 41.1964C12.5511 40.5432 11.9986 39.634 11.7897 38.6223H42.2097C42.0008 39.634 41.4483 40.5432 40.6451 41.1964C39.8416 41.8495 38.8367 42.2068 37.7997 42.208ZM51.2997 36.8295H2.69965C2.20264 36.8295 1.79965 36.4281 1.79965 35.933C1.79965 35.438 2.20264 35.0366 2.69965 35.0366H51.2997C51.7967 35.0366 52.1997 35.438 52.1997 35.933C52.1997 36.4281 51.7967 36.8295 51.2997 36.8295Z" />
<path d="M45.8279 8.41821L44.1717 7.71468L40.7698 15.6581C40.0309 17.3718 40.0108 19.3082 40.7148 21.0367L42.385 20.3659C41.8671 19.0769 41.8819 17.6359 42.4259 16.3572L45.8279 8.41821Z" />
<path d="M44.9053 5.99836L45.5413 4.51449L47.1967 5.21803L46.5607 6.7019L44.9053 5.99836Z" />
</svg>
