<svg width="54" height="50" viewBox="0 0 54 50" xmlns="http://www.w3.org/2000/svg">
<path d="M48.6833 13.1278L43.7672 8.15223L43.2035 7.5862C42.182 6.61239 41.0442 5.76981 39.8167 5.07664C38.0148 4.03749 36.0228 3.37446 33.9595 3.12773C28.9278 2.60817 23.8597 3.68183 19.4661 6.19865C11.305 10.7903 5.28175 19.9784 4.12993 29.604C3.74285 32.798 4.13493 37.552 6.48247 40.5983C6.51686 40.6476 6.55094 40.6919 6.59034 40.7411C6.75199 40.938 6.91865 41.1298 7.0903 41.3072L12.4379 46.5581L12.5508 46.6516C13.5864 47.4035 14.8061 47.8578 16.0795 47.9655C16.3394 47.99 16.5892 48 16.8343 48C20.5742 48 22.5152 45.2245 24.2452 42.7588C24.8264 41.8839 25.4649 41.0485 26.1568 40.259C29.1712 36.9913 33.1168 35.8447 37.2924 34.6292C38.2529 34.3536 39.2482 34.0632 40.2333 33.7483C45.5955 32.0308 51.4921 28.084 51.9668 22.1738C52.2166 19.0388 51.0505 15.8244 48.6833 13.1278ZM9.42789 40.697C8.92699 40.3762 8.48298 39.9734 8.11406 39.506C8.06998 39.452 8.02589 39.3977 7.98649 39.3386C6.17304 36.9273 5.71215 32.8574 6.07483 29.8408C6.65483 25.2882 8.27007 20.9308 10.7952 17.1045C13.2321 13.315 16.5339 10.1637 20.4267 7.91128C23.7879 5.99436 27.5843 4.97948 31.4494 4.9634C32.2189 4.96278 32.9881 5.0039 33.7532 5.08646C35.808 5.37465 37.7778 6.10014 39.531 7.21459C41.2841 8.32873 42.7802 9.80644 43.9186 11.5482C45.0811 13.3021 45.6389 15.3904 45.5066 17.4929C45.4907 17.696 45.4644 17.8982 45.4282 18.0984L40.9827 13.6349C40.5993 13.2538 39.9809 13.2557 39.6001 13.6393C39.2193 14.0233 39.2196 14.6439 39.6004 15.0275L44.7566 20.2096C43.8399 21.9651 42.4964 23.46 40.8501 24.5551L32.5329 16.1985C32.9487 15.6196 33.1716 14.9239 33.1701 14.2103C33.1707 13.3009 32.8114 12.4284 32.1714 11.7852C31.5313 11.1419 30.6627 10.7802 29.757 10.7799C28.8515 10.7799 27.9829 11.1409 27.3422 11.7839C26.7019 12.4268 26.3423 13.2992 26.3423 14.2084C26.3426 15.1178 26.7028 15.99 27.3435 16.6326C27.9842 17.2752 28.853 17.6359 29.7589 17.6353C30.1713 17.6369 30.5803 17.56 30.9645 17.409L39.1449 25.6225C37.8655 26.327 36.521 26.9053 35.1309 27.3498C34.7241 27.4779 34.3123 27.6057 33.9005 27.7287L26.6319 20.4304C26.2486 20.0486 25.6295 20.0502 25.2474 20.4335C24.8657 20.8172 24.8644 21.4384 25.2446 21.8233L31.7537 28.3588C29.874 28.8711 28.0289 29.504 26.2298 30.2534L15.7898 19.7662C15.4068 19.3817 14.7858 19.382 14.4028 19.7666C14.0198 20.1511 14.0198 20.7746 14.4028 21.1592L24.3674 31.1641C22.8228 32.0073 21.4239 33.0957 20.2258 34.3876L13.4177 27.5469C13.0347 27.162 12.4138 27.1623 12.0307 27.5472C11.6477 27.9318 11.6477 28.5553 12.0307 28.9398L18.981 35.9183C18.6918 36.312 18.4076 36.7107 18.1331 37.1044C17.4496 38.1623 16.661 39.1481 15.7802 40.0472L11.0895 35.3375C10.9057 35.152 10.6559 35.0474 10.3954 35.0471C10.1346 35.0468 9.88482 35.1504 9.70035 35.3356C9.51619 35.5205 9.41269 35.7717 9.41332 36.0332C9.41364 36.295 9.51744 36.5455 9.70254 36.7301L14.109 41.1544C13.3636 41.4555 12.555 41.5672 11.7561 41.479C10.9285 41.4103 10.1299 41.1422 9.42789 40.697ZM29.8324 15.6626C29.808 15.6666 29.7833 15.6682 29.7589 15.6676C29.3731 15.6682 29.0029 15.5147 28.73 15.2413C28.457 14.9678 28.3035 14.5964 28.3032 14.209C28.3029 13.8219 28.4561 13.4502 28.7287 13.1765C29.0017 12.9027 29.3716 12.7489 29.7571 12.7492C30.143 12.7492 30.5128 12.9037 30.7852 13.1777C31.0575 13.4518 31.2104 13.8235 31.2098 14.2108C31.2107 14.4516 31.1501 14.689 31.0331 14.8996C30.7946 15.3482 30.3383 15.6381 29.8324 15.6626ZM50.0112 22.016C49.6141 26.957 44.3895 30.3477 39.6353 31.8731C38.6747 32.1782 37.6942 32.4636 36.7484 32.7392C32.499 33.9745 28.1022 35.2491 24.7204 38.9202C23.9669 39.7751 23.2712 40.6792 22.6371 41.627C20.8875 44.1319 19.3629 46.2974 16.2606 46.0021C15.3585 45.9302 14.4921 45.6175 13.7511 45.0963L12.0946 43.4723C12.1731 43.4774 12.2515 43.4774 12.3297 43.4774C16.0696 43.4774 18.0106 40.7019 19.7406 38.2362C20.3218 37.3609 20.9603 36.5259 21.6522 35.736C24.6666 32.4683 28.6122 31.3218 32.7878 30.1062C33.7483 29.8306 34.7436 29.5402 35.7287 29.2253C41.091 27.5078 46.9875 23.566 47.4622 17.6508C47.5476 16.5828 47.4728 15.5079 47.2415 14.4618C49.2363 16.7501 50.2219 19.4273 50.0112 22.016Z"/>
</svg>
