<svg width="36" height="19" viewBox="0 0 36 19" xmlns="http://www.w3.org/2000/svg">
<path fill-rule="evenodd" clip-rule="evenodd" d="M0 1.5C0 0.671573 0.671573 0 1.5 0H3.5C4.32843 0 5 0.671573 5 1.5C5 2.32843 4.32843 3 3.5 3H1.5C0.671573 3 0 2.32843 0 1.5ZM8.61108 1.5C8.61108 0.671573 9.28266 0 10.1111 0H34.5C35.3284 0 36 0.671573 36 1.5C36 2.32843 35.3284 3 34.5 3H10.1111C9.28266 3 8.61108 2.32843 8.61108 1.5ZM0 9.5C0 8.67157 0.671573 8 1.5 8H3.5C4.32843 8 5 8.67157 5 9.5C5 10.3284 4.32843 11 3.5 11H1.5C0.671573 11 0 10.3284 0 9.5ZM8.61108 9.5C8.61108 8.67157 9.28266 8 10.1111 8H34.5C35.3284 8 36 8.67157 36 9.5C36 10.3284 35.3284 11 34.5 11H10.1111C9.28266 11 8.61108 10.3284 8.61108 9.5ZM0 17.5C0 16.6716 0.671573 16 1.5 16H3.5C4.32843 16 5 16.6716 5 17.5C5 18.3284 4.32843 19 3.5 19H1.5C0.671573 19 0 18.3284 0 17.5ZM8.61108 17.5C8.61108 16.6716 9.28266 16 10.1111 16H34.5C35.3284 16 36 16.6716 36 17.5C36 18.3284 35.3284 19 34.5 19H10.1111C9.28266 19 8.61108 18.3284 8.61108 17.5Z"/>
</svg>
