<svg width="19" height="19" viewBox="0 0 19 19" fill="none" xmlns="http://www.w3.org/2000/svg">
<path fill-rule="evenodd" clip-rule="evenodd" d="M9.52468 0.5C9.12824 0.5 8.83231 0.704623 8.6644 0.848817C8.47968 1.00743 8.31698 1.20817 8.17648 1.40886C7.89282 1.81403 7.61457 2.34338 7.3624 2.88233C6.85423 3.96842 6.39539 5.21723 6.15557 5.89896C6.15205 5.90896 6.14169 5.91682 6.12915 5.91722C5.37777 5.94129 4.00074 6.00514 2.80052 6.17191C2.20757 6.25431 1.61041 6.36791 1.14417 6.53241C0.914599 6.6134 0.664235 6.72451 0.457725 6.8857C0.24872 7.04884 0 7.33475 0 7.74705C0 8.03221 0.113864 8.28463 0.216933 8.46476C0.327409 8.65784 0.473413 8.84919 0.629584 9.02988C0.942606 9.39205 1.3565 9.77974 1.78443 10.1485C2.64437 10.8894 3.64023 11.6211 4.20683 12.0256C4.21577 12.032 4.21993 12.0427 4.21623 12.0542C3.99864 12.731 3.62073 13.9695 3.38033 15.1182C3.26092 15.6888 3.16872 16.2679 3.15487 16.7571C3.14798 17.0004 3.15929 17.2523 3.21064 17.4832C3.25846 17.6983 3.36355 18.0003 3.63251 18.2255C3.93438 18.4783 4.29769 18.5118 4.54925 18.4971C4.80649 18.482 5.06412 18.4114 5.29371 18.3293C5.75735 18.1635 6.28071 17.8861 6.78254 17.5865C7.79631 16.9814 8.86976 16.196 9.48023 15.7341C9.49128 15.7258 9.50752 15.7256 9.51911 15.7343C10.1294 16.1965 11.2038 16.9825 12.2251 17.588C12.731 17.8879 13.2598 18.1654 13.7314 18.331C13.9655 18.4132 14.2258 18.4824 14.4854 18.4971C14.7402 18.5116 15.0934 18.4777 15.3949 18.2432C15.6774 18.0235 15.7947 17.7217 15.8492 17.4979C15.9065 17.2621 15.9198 17.0062 15.9135 16.761C15.9007 16.2682 15.8037 15.6869 15.6781 15.1165C15.4249 13.9676 15.0244 12.7288 14.7927 12.0491C14.7886 12.037 14.793 12.0258 14.8022 12.0192C15.3717 11.6124 16.3654 10.8817 17.2224 10.1426C17.6489 9.77475 18.0612 9.38816 18.3729 9.02697C18.5285 8.84676 18.6739 8.65587 18.784 8.46319C18.8867 8.28337 19 8.03154 19 7.74705C19 7.33519 18.7518 7.04941 18.5429 6.88623C18.3367 6.72503 18.0866 6.61392 17.8573 6.53293C17.3917 6.36846 16.7954 6.25485 16.2032 6.17243C15.0045 6.00561 13.6286 5.94158 12.8755 5.91737C12.8628 5.91697 12.8527 5.90913 12.8492 5.89904C12.6148 5.21528 12.1675 3.96756 11.6696 2.88296C11.4225 2.34483 11.1492 1.81598 10.8691 1.41098C10.7304 1.2104 10.5691 1.00926 10.3851 0.850133C10.2173 0.705064 9.9217 0.5 9.52468 0.5ZM7.65766 6.37334C7.89326 5.70362 8.33306 4.5094 8.80987 3.49033C9.0502 2.9767 9.28603 2.53794 9.49591 2.23814C9.4976 2.23574 9.49927 2.23335 9.50094 2.23098C9.50818 2.2207 9.51528 2.21073 9.52226 2.20107C9.52962 2.21143 9.53713 2.22215 9.54479 2.23322C9.75111 2.53155 9.98233 2.96873 10.2176 3.48133C10.6845 4.49821 11.1131 5.69082 11.3433 6.36248C11.5531 6.97435 12.1448 7.39496 12.8219 7.41671C13.5612 7.44047 14.8651 7.5025 15.9731 7.65671C16.5139 7.73198 16.9642 7.82355 17.2702 7.92689C17.2353 7.97237 17.1945 8.0225 17.1473 8.07723C16.9071 8.35551 16.56 8.68528 16.1566 9.03313C15.354 9.72531 14.4063 10.4232 13.849 10.8213C13.2997 11.2137 13.0751 11.8915 13.286 12.5102C13.5129 13.1757 13.8926 14.3539 14.1281 15.4231C14.2468 15.9617 14.3214 16.4397 14.3306 16.7978C14.332 16.8508 14.3318 16.8985 14.3305 16.9409C14.3149 16.9358 14.2986 16.9302 14.2815 16.9242C13.9618 16.812 13.5409 16.5984 13.065 16.3163C12.1229 15.7577 11.1057 15.0154 10.5077 14.5624C9.91878 14.1165 9.08196 14.1157 8.49231 14.5618C7.89342 15.0149 6.87551 15.758 5.93857 16.3172C5.46609 16.5993 5.05006 16.8127 4.73674 16.925C4.73609 16.8862 4.73632 16.8437 4.73763 16.7973C4.74793 16.4335 4.82026 15.9507 4.93342 15.41C5.15818 14.3361 5.51761 13.1547 5.73086 12.4913C5.9279 11.8784 5.70095 11.214 5.15968 10.8275C4.60521 10.4316 3.65527 9.7327 2.84969 9.03857C2.44485 8.68975 2.09605 8.35878 1.85457 8.07938C1.80655 8.02383 1.76512 7.97297 1.72977 7.92689C2.0365 7.82329 2.48812 7.73157 3.03027 7.65624C4.1399 7.50205 5.44498 7.44019 6.18264 7.41657C6.85527 7.39503 7.4444 6.97957 7.65766 6.37334ZM9.74968 1.94353C9.74965 1.9438 9.74665 1.94612 9.74075 1.94968C9.74675 1.94504 9.7497 1.94326 9.74968 1.94353ZM9.30577 1.94832C9.30001 1.94479 9.29709 1.9425 9.29707 1.94224C9.29705 1.94198 9.29992 1.94374 9.30577 1.94832ZM14.2966 17.1926C14.2962 17.1934 14.2961 17.1939 14.2961 17.1939C14.2962 17.194 14.2971 17.1922 14.2985 17.1882C14.2976 17.1901 14.297 17.1916 14.2966 17.1926ZM14.5874 16.9999L14.5906 16.9999C14.5907 16.9999 14.5896 17 14.5874 16.9999ZM4.44426 16.9999L4.44711 16.9999C4.44516 17 4.44423 17 4.44426 16.9999Z" fill="#C4C4C4"/>
</svg>
