<svg width="18" height="19" viewBox="0 0 18 19" fill="none" xmlns="http://www.w3.org/2000/svg">
<path fill-rule="evenodd" clip-rule="evenodd" d="M9.02338 0.5C8.64781 0.5 8.36745 0.704623 8.20837 0.848817C8.03338 1.00743 7.87924 1.20817 7.74614 1.40886C7.47741 1.81403 7.2138 2.34338 6.97491 2.88233C6.49348 3.96842 6.05879 5.21722 5.83159 5.89896C5.82826 5.90896 5.81844 5.91682 5.80656 5.91722C5.09473 5.94129 3.79017 6.00514 2.65312 6.17191C2.09139 6.25431 1.52565 6.36791 1.08395 6.53241C0.866462 6.6134 0.629275 6.72451 0.433634 6.8857C0.235629 7.04884 0 7.33475 0 7.74705C0 8.0322 0.107871 8.28463 0.205515 8.46476C0.310177 8.65784 0.448497 8.84919 0.596448 9.02988C0.892995 9.39205 1.28511 9.77974 1.69051 10.1485C2.5052 10.8894 3.44864 11.6211 3.98542 12.0256C3.99388 12.032 3.99783 12.0427 3.99432 12.0542C3.78818 12.731 3.43016 13.9695 3.20242 15.1182C3.08929 15.6887 3.00194 16.2679 2.98882 16.7571C2.9823 17.0004 2.99301 17.2523 3.04166 17.4832C3.08697 17.6983 3.18652 18.0003 3.44133 18.2255C3.7273 18.4783 4.07149 18.5118 4.30981 18.497C4.55351 18.482 4.79759 18.4114 5.01509 18.3293C5.45433 18.1635 5.95015 17.8861 6.42556 17.5865C7.38598 16.9814 8.40293 16.196 8.98127 15.7341C8.99174 15.7258 9.00712 15.7255 9.0181 15.7343C9.59632 16.1965 10.6141 16.9825 11.5817 17.588C12.0609 17.8879 12.5619 18.1654 13.0087 18.331C13.2305 18.4132 13.4771 18.4824 13.723 18.4971C13.9644 18.5116 14.299 18.4777 14.5847 18.2432C14.8523 18.0235 14.9634 17.7217 15.015 17.4979C15.0693 17.2621 15.082 17.0062 15.0759 16.761C15.0638 16.2682 14.972 15.6869 14.8529 15.1165C14.6131 13.9676 14.2337 12.7288 14.0142 12.0491C14.0103 12.037 14.0144 12.0258 14.0232 12.0192C14.5627 11.6124 15.504 10.8817 16.316 10.1426C16.72 9.77475 17.1106 9.38816 17.4059 9.02697C17.5533 8.84675 17.6911 8.65587 17.7953 8.46319C17.8926 8.28337 18 8.03154 18 7.74705C18 7.33519 17.7649 7.04941 17.567 6.88623C17.3716 6.72503 17.1347 6.61392 16.9175 6.53293C16.4764 6.36846 15.9114 6.25485 15.3504 6.17243C14.2148 6.0056 12.9113 5.94157 12.1979 5.91737C12.1858 5.91697 12.1762 5.90913 12.1729 5.89904C11.9509 5.21528 11.5271 3.96756 11.0554 2.88296C10.8214 2.34483 10.5624 1.81598 10.2971 1.41098C10.1656 1.2104 10.0129 1.00926 9.8385 0.850133C9.67954 0.705064 9.39951 0.5 9.02338 0.5ZM7.25463 6.37333C7.47782 5.70362 7.89448 4.5094 8.3462 3.49033C8.57387 2.9767 8.79729 2.53794 8.99613 2.23814C8.99772 2.23574 8.99931 2.23335 9.00089 2.23098C9.00775 2.2207 9.01448 2.21073 9.02109 2.20107C9.02806 2.21143 9.03518 2.22215 9.04243 2.23322C9.23789 2.53155 9.45694 2.96873 9.67988 3.48133C10.1221 4.49821 10.5282 5.69082 10.7463 6.36248C10.945 6.97435 11.5056 7.39495 12.147 7.41671C12.8475 7.44047 14.0827 7.5025 15.1324 7.65671C15.6448 7.73198 16.0714 7.82354 16.3613 7.92689C16.3282 7.97237 16.2896 8.0225 16.2448 8.07723C16.0173 8.3555 15.6884 8.68528 15.3063 9.03313C14.5459 9.72531 13.6481 10.4232 13.1202 10.8213C12.5997 11.2137 12.387 11.8915 12.5868 12.5102C12.8017 13.1757 13.1614 14.3539 13.3846 15.4231C13.497 15.9617 13.5676 16.4397 13.5764 16.7978C13.5777 16.8508 13.5775 16.8985 13.5763 16.9409C13.5615 16.9358 13.546 16.9302 13.5299 16.9242C13.227 16.812 12.8282 16.5984 12.3774 16.3163C11.4849 15.7577 10.5212 15.0154 9.95462 14.5624C9.39674 14.1165 8.60396 14.1157 8.04534 14.5618C7.47797 15.0149 6.51364 15.758 5.62601 16.3172C5.1784 16.5993 4.78427 16.8127 4.48743 16.925C4.48682 16.8862 4.48704 16.8437 4.48828 16.7973C4.49804 16.4335 4.56656 15.9507 4.67377 15.41C4.88669 14.3361 5.22721 13.1547 5.42923 12.4913C5.6159 11.8784 5.4009 11.214 4.88812 10.8275C4.36283 10.4316 3.46289 9.7327 2.6997 9.03857C2.31618 8.68975 1.98573 8.35878 1.75696 8.07938C1.71147 8.02382 1.67222 7.97297 1.63873 7.92688C1.92932 7.82329 2.35716 7.73157 2.87078 7.65624C3.92201 7.50205 5.1584 7.44019 5.85723 7.41657C6.49446 7.39503 7.05259 6.97957 7.25463 6.37333ZM9.23653 1.94353C9.23653 1.94353 9.23367 1.94612 9.22808 1.94968C9.23376 1.94504 9.23653 1.94353 9.23653 1.94353ZM8.81599 1.94832C8.81054 1.94479 8.80775 1.94224 8.80775 1.94224C8.80775 1.94224 8.81045 1.94374 8.81599 1.94832ZM13.5441 17.1926L13.5437 17.1939C13.5437 17.1939 13.5446 17.1922 13.5459 17.1882C13.5451 17.1901 13.5441 17.1926 13.5441 17.1926ZM13.8197 16.9999L13.8227 16.9999C13.8227 16.9999 13.8217 17 13.8197 16.9999Z" fill="url(#paint0_linear_894_1235)"/>
<path d="M8.3462 3.49033C7.89448 4.5094 7.47782 5.70362 7.25463 6.37333C7.05259 6.97957 6.49446 7.39503 5.85723 7.41657C5.1584 7.44019 3.92201 7.50205 2.87078 7.65624C2.35716 7.73157 1.92932 7.82329 1.63873 7.92688C1.67222 7.97297 1.71147 8.02382 1.75696 8.07938C1.98573 8.35878 2.31618 8.68975 2.6997 9.03857C3.46289 9.7327 4.36283 10.4316 4.88812 10.8275C5.4009 11.214 5.6159 11.8784 5.42923 12.4913C5.22721 13.1547 4.88669 14.3361 4.67377 15.41C4.56656 15.9507 4.49804 16.4335 4.48828 16.7973C4.48704 16.8437 4.48682 16.8862 4.48743 16.925C4.78427 16.8127 5.1784 16.5993 5.62601 16.3172C6.51364 15.758 7.47797 15.0149 8.04534 14.5618C8.60396 14.1157 9.39674 14.1165 9.95462 14.5624C10.5212 15.0154 11.4849 15.7577 12.3774 16.3163C12.8282 16.5984 13.227 16.812 13.5299 16.9242C13.546 16.9302 13.5615 16.9358 13.5763 16.9409C13.5775 16.8985 13.5777 16.8508 13.5764 16.7978C13.5676 16.4397 13.497 15.9617 13.3846 15.4231C13.1614 14.3539 12.8017 13.1757 12.5868 12.5102C12.387 11.8915 12.5997 11.2137 13.1202 10.8213C13.6481 10.4232 14.5459 9.72531 15.3063 9.03313C15.6884 8.68528 16.0173 8.3555 16.2448 8.07723C16.2896 8.0225 16.3282 7.97237 16.3613 7.92689C16.0714 7.82354 15.6448 7.73198 15.1324 7.65671C14.0827 7.5025 12.8475 7.44047 12.147 7.41671C11.5056 7.39495 10.945 6.97435 10.7463 6.36248C10.5282 5.69082 10.1221 4.49821 9.67988 3.48133C9.45694 2.96873 9.23789 2.53155 9.04243 2.23322L9.02109 2.20107L9.00089 2.23098L8.99613 2.23814C8.79729 2.53794 8.57387 2.9767 8.3462 3.49033Z" fill="url(#paint1_linear_894_1235)"/>
<defs>
<linearGradient id="paint0_linear_894_1235" x1="9" y1="0.5" x2="9" y2="18.5" gradientUnits="userSpaceOnUse">
<stop stop-color="#FF7A00"/>
<stop offset="1" stop-color="#FF3D00"/>
</linearGradient>
<linearGradient id="paint1_linear_894_1235" x1="9" y1="0.5" x2="9" y2="18.5" gradientUnits="userSpaceOnUse">
<stop stop-color="#FF7A00"/>
<stop offset="1" stop-color="#FF3D00"/>
</linearGradient>
</defs>
</svg>
